<mxfile host="app.diagrams.net" modified="2022-04-19T03:03:32.204Z" agent="5.0 (Windows NT 10.0; Win64; x64) AppleWebKit/537.36 (KHTML, like Gecko) Chrome/100.0.4896.75 Safari/537.36" etag="IjMIw6FtNM4igA6oSmms" version="17.4.5" type="github" pages="3">
  <diagram id="V7DGzK6TTjDBdNX_tZ4m" name="(b) 小題">
    <mxGraphModel dx="1607" dy="829" grid="1" gridSize="10" guides="1" tooltips="1" connect="1" arrows="1" fold="1" page="1" pageScale="1" pageWidth="827" pageHeight="1169" math="0" shadow="0">
      <root>
        <mxCell id="0" />
        <mxCell id="1" parent="0" />
        <mxCell id="NUg2isRPqVOl1SRqVj6D-4" style="edgeStyle=orthogonalEdgeStyle;rounded=0;orthogonalLoop=1;jettySize=auto;html=1;entryX=0.5;entryY=0;entryDx=0;entryDy=0;exitX=0.5;exitY=1;exitDx=0;exitDy=0;" edge="1" parent="1" source="NUg2isRPqVOl1SRqVj6D-1" target="NUg2isRPqVOl1SRqVj6D-2">
          <mxGeometry relative="1" as="geometry" />
        </mxCell>
        <mxCell id="NUg2isRPqVOl1SRqVj6D-5" style="edgeStyle=orthogonalEdgeStyle;rounded=0;orthogonalLoop=1;jettySize=auto;html=1;exitX=0.5;exitY=1;exitDx=0;exitDy=0;entryX=0.5;entryY=0;entryDx=0;entryDy=0;" edge="1" parent="1" source="NUg2isRPqVOl1SRqVj6D-1" target="NUg2isRPqVOl1SRqVj6D-3">
          <mxGeometry relative="1" as="geometry" />
        </mxCell>
        <mxCell id="NUg2isRPqVOl1SRqVj6D-1" value="霓葳公司" style="rounded=0;whiteSpace=wrap;html=1;" vertex="1" parent="1">
          <mxGeometry x="520" y="210" width="110" height="50" as="geometry" />
        </mxCell>
        <mxCell id="reWbSAiXxjlT2uWekY0L-5" style="edgeStyle=orthogonalEdgeStyle;rounded=0;orthogonalLoop=1;jettySize=auto;html=1;exitX=0.5;exitY=1;exitDx=0;exitDy=0;" edge="1" parent="1" source="NUg2isRPqVOl1SRqVj6D-2" target="reWbSAiXxjlT2uWekY0L-1">
          <mxGeometry relative="1" as="geometry" />
        </mxCell>
        <mxCell id="reWbSAiXxjlT2uWekY0L-6" style="edgeStyle=orthogonalEdgeStyle;rounded=0;orthogonalLoop=1;jettySize=auto;html=1;exitX=0.5;exitY=1;exitDx=0;exitDy=0;entryX=0.5;entryY=0;entryDx=0;entryDy=0;" edge="1" parent="1" source="NUg2isRPqVOl1SRqVj6D-2" target="reWbSAiXxjlT2uWekY0L-2">
          <mxGeometry relative="1" as="geometry" />
        </mxCell>
        <mxCell id="NUg2isRPqVOl1SRqVj6D-2" value="前台" style="rounded=0;whiteSpace=wrap;html=1;" vertex="1" parent="1">
          <mxGeometry x="310" y="340" width="120" height="60" as="geometry" />
        </mxCell>
        <mxCell id="reWbSAiXxjlT2uWekY0L-9" style="edgeStyle=orthogonalEdgeStyle;rounded=0;orthogonalLoop=1;jettySize=auto;html=1;exitX=0.5;exitY=1;exitDx=0;exitDy=0;entryX=0.5;entryY=0;entryDx=0;entryDy=0;" edge="1" parent="1" source="NUg2isRPqVOl1SRqVj6D-3" target="reWbSAiXxjlT2uWekY0L-7">
          <mxGeometry relative="1" as="geometry" />
        </mxCell>
        <mxCell id="reWbSAiXxjlT2uWekY0L-10" style="edgeStyle=orthogonalEdgeStyle;rounded=0;orthogonalLoop=1;jettySize=auto;html=1;exitX=0.5;exitY=1;exitDx=0;exitDy=0;entryX=0.5;entryY=0;entryDx=0;entryDy=0;" edge="1" parent="1" source="NUg2isRPqVOl1SRqVj6D-3" target="reWbSAiXxjlT2uWekY0L-8">
          <mxGeometry relative="1" as="geometry" />
        </mxCell>
        <mxCell id="NUg2isRPqVOl1SRqVj6D-3" value="後台" style="rounded=0;whiteSpace=wrap;html=1;" vertex="1" parent="1">
          <mxGeometry x="750" y="340" width="120" height="60" as="geometry" />
        </mxCell>
        <mxCell id="reWbSAiXxjlT2uWekY0L-22" style="edgeStyle=orthogonalEdgeStyle;rounded=0;orthogonalLoop=1;jettySize=auto;html=1;exitX=1;exitY=0.5;exitDx=0;exitDy=0;entryX=0;entryY=0.5;entryDx=0;entryDy=0;" edge="1" parent="1" source="NUg2isRPqVOl1SRqVj6D-8" target="NUg2isRPqVOl1SRqVj6D-10">
          <mxGeometry relative="1" as="geometry" />
        </mxCell>
        <mxCell id="NUg2isRPqVOl1SRqVj6D-8" value="註冊登記" style="rounded=0;whiteSpace=wrap;html=1;" vertex="1" parent="1">
          <mxGeometry x="540" y="630" width="120" height="60" as="geometry" />
        </mxCell>
        <mxCell id="reWbSAiXxjlT2uWekY0L-26" style="edgeStyle=orthogonalEdgeStyle;rounded=0;orthogonalLoop=1;jettySize=auto;html=1;exitX=0.5;exitY=1;exitDx=0;exitDy=0;entryX=0.5;entryY=0;entryDx=0;entryDy=0;" edge="1" parent="1" source="NUg2isRPqVOl1SRqVj6D-10" target="reWbSAiXxjlT2uWekY0L-25">
          <mxGeometry relative="1" as="geometry" />
        </mxCell>
        <mxCell id="NUg2isRPqVOl1SRqVj6D-10" value="已註冊人員" style="rounded=0;whiteSpace=wrap;html=1;" vertex="1" parent="1">
          <mxGeometry x="800" y="630" width="120" height="60" as="geometry" />
        </mxCell>
        <mxCell id="NUg2isRPqVOl1SRqVj6D-12" value="產品分類頁面" style="rounded=0;whiteSpace=wrap;html=1;" vertex="1" parent="1">
          <mxGeometry x="330" y="740" width="120" height="60" as="geometry" />
        </mxCell>
        <mxCell id="reWbSAiXxjlT2uWekY0L-29" style="edgeStyle=orthogonalEdgeStyle;rounded=0;orthogonalLoop=1;jettySize=auto;html=1;exitX=0.5;exitY=1;exitDx=0;exitDy=0;entryX=0.5;entryY=0;entryDx=0;entryDy=0;" edge="1" parent="1" source="NUg2isRPqVOl1SRqVj6D-15" target="NUg2isRPqVOl1SRqVj6D-28">
          <mxGeometry relative="1" as="geometry" />
        </mxCell>
        <mxCell id="NUg2isRPqVOl1SRqVj6D-15" value="購物車" style="rounded=0;whiteSpace=wrap;html=1;" vertex="1" parent="1">
          <mxGeometry x="800" y="790" width="120" height="60" as="geometry" />
        </mxCell>
        <mxCell id="reWbSAiXxjlT2uWekY0L-31" style="edgeStyle=orthogonalEdgeStyle;rounded=0;orthogonalLoop=1;jettySize=auto;html=1;exitX=1;exitY=0.5;exitDx=0;exitDy=0;entryX=0;entryY=0.5;entryDx=0;entryDy=0;" edge="1" parent="1" source="NUg2isRPqVOl1SRqVj6D-20" target="NUg2isRPqVOl1SRqVj6D-21">
          <mxGeometry relative="1" as="geometry" />
        </mxCell>
        <mxCell id="NUg2isRPqVOl1SRqVj6D-20" value="白公主銀行" style="rounded=0;whiteSpace=wrap;html=1;" vertex="1" parent="1">
          <mxGeometry x="430" y="1109" width="120" height="60" as="geometry" />
        </mxCell>
        <mxCell id="reWbSAiXxjlT2uWekY0L-35" style="edgeStyle=orthogonalEdgeStyle;rounded=0;orthogonalLoop=1;jettySize=auto;html=1;exitX=1;exitY=0.5;exitDx=0;exitDy=0;entryX=0;entryY=0.5;entryDx=0;entryDy=0;" edge="1" parent="1" source="NUg2isRPqVOl1SRqVj6D-21" target="reWbSAiXxjlT2uWekY0L-34">
          <mxGeometry relative="1" as="geometry" />
        </mxCell>
        <mxCell id="NUg2isRPqVOl1SRqVj6D-21" value="驗證金流系統" style="rounded=0;whiteSpace=wrap;html=1;" vertex="1" parent="1">
          <mxGeometry x="670" y="1109" width="120" height="60" as="geometry" />
        </mxCell>
        <mxCell id="NUg2isRPqVOl1SRqVj6D-24" value="提供" style="text;html=1;align=center;verticalAlign=middle;resizable=0;points=[];autosize=1;strokeColor=none;fillColor=none;" vertex="1" parent="1">
          <mxGeometry x="590" y="1109" width="40" height="20" as="geometry" />
        </mxCell>
        <mxCell id="reWbSAiXxjlT2uWekY0L-32" style="edgeStyle=orthogonalEdgeStyle;rounded=0;orthogonalLoop=1;jettySize=auto;html=1;exitX=0.5;exitY=1;exitDx=0;exitDy=0;entryX=0.5;entryY=0;entryDx=0;entryDy=0;" edge="1" parent="1" source="NUg2isRPqVOl1SRqVj6D-28" target="NUg2isRPqVOl1SRqVj6D-21">
          <mxGeometry relative="1" as="geometry" />
        </mxCell>
        <mxCell id="reWbSAiXxjlT2uWekY0L-33" value="訂單成立後進行信用卡轉帳" style="edgeLabel;html=1;align=center;verticalAlign=middle;resizable=0;points=[];" vertex="1" connectable="0" parent="reWbSAiXxjlT2uWekY0L-32">
          <mxGeometry x="-0.4615" y="2" relative="1" as="geometry">
            <mxPoint x="83" y="21" as="offset" />
          </mxGeometry>
        </mxCell>
        <mxCell id="reWbSAiXxjlT2uWekY0L-39" style="edgeStyle=orthogonalEdgeStyle;rounded=0;orthogonalLoop=1;jettySize=auto;html=1;exitX=1;exitY=0.5;exitDx=0;exitDy=0;" edge="1" parent="1" source="NUg2isRPqVOl1SRqVj6D-28">
          <mxGeometry relative="1" as="geometry">
            <mxPoint x="1100" y="970" as="targetPoint" />
          </mxGeometry>
        </mxCell>
        <mxCell id="NUg2isRPqVOl1SRqVj6D-28" value="訂單管理系統" style="rounded=0;whiteSpace=wrap;html=1;" vertex="1" parent="1">
          <mxGeometry x="670" y="940" width="120" height="60" as="geometry" />
        </mxCell>
        <mxCell id="reWbSAiXxjlT2uWekY0L-15" style="edgeStyle=orthogonalEdgeStyle;rounded=0;orthogonalLoop=1;jettySize=auto;html=1;exitX=0.5;exitY=1;exitDx=0;exitDy=0;entryX=0.5;entryY=0;entryDx=0;entryDy=0;" edge="1" parent="1" source="reWbSAiXxjlT2uWekY0L-1" target="NUg2isRPqVOl1SRqVj6D-8">
          <mxGeometry relative="1" as="geometry" />
        </mxCell>
        <mxCell id="reWbSAiXxjlT2uWekY0L-18" style="edgeStyle=orthogonalEdgeStyle;rounded=0;orthogonalLoop=1;jettySize=auto;html=1;exitX=0.25;exitY=1;exitDx=0;exitDy=0;entryX=0.5;entryY=0;entryDx=0;entryDy=0;" edge="1" parent="1" source="reWbSAiXxjlT2uWekY0L-1" target="NUg2isRPqVOl1SRqVj6D-12">
          <mxGeometry relative="1" as="geometry" />
        </mxCell>
        <mxCell id="reWbSAiXxjlT2uWekY0L-1" value="客戶" style="rounded=0;whiteSpace=wrap;html=1;" vertex="1" parent="1">
          <mxGeometry x="220" y="460" width="120" height="60" as="geometry" />
        </mxCell>
        <mxCell id="reWbSAiXxjlT2uWekY0L-19" style="edgeStyle=orthogonalEdgeStyle;rounded=0;orthogonalLoop=1;jettySize=auto;html=1;exitX=0.5;exitY=1;exitDx=0;exitDy=0;entryX=0.5;entryY=0;entryDx=0;entryDy=0;" edge="1" parent="1" source="reWbSAiXxjlT2uWekY0L-2" target="NUg2isRPqVOl1SRqVj6D-12">
          <mxGeometry relative="1" as="geometry" />
        </mxCell>
        <mxCell id="reWbSAiXxjlT2uWekY0L-2" value="瀏覽者" style="rounded=0;whiteSpace=wrap;html=1;" vertex="1" parent="1">
          <mxGeometry x="410" y="460" width="120" height="60" as="geometry" />
        </mxCell>
        <mxCell id="reWbSAiXxjlT2uWekY0L-16" style="edgeStyle=orthogonalEdgeStyle;rounded=0;orthogonalLoop=1;jettySize=auto;html=1;exitX=0.5;exitY=1;exitDx=0;exitDy=0;entryX=0.5;entryY=0;entryDx=0;entryDy=0;" edge="1" parent="1" source="reWbSAiXxjlT2uWekY0L-7" target="NUg2isRPqVOl1SRqVj6D-8">
          <mxGeometry relative="1" as="geometry" />
        </mxCell>
        <mxCell id="reWbSAiXxjlT2uWekY0L-7" value="公司人員" style="rounded=0;whiteSpace=wrap;html=1;" vertex="1" parent="1">
          <mxGeometry x="670" y="460" width="120" height="60" as="geometry" />
        </mxCell>
        <mxCell id="reWbSAiXxjlT2uWekY0L-38" style="edgeStyle=orthogonalEdgeStyle;rounded=0;orthogonalLoop=1;jettySize=auto;html=1;exitX=0.5;exitY=1;exitDx=0;exitDy=0;entryX=0.5;entryY=0;entryDx=0;entryDy=0;" edge="1" parent="1" source="reWbSAiXxjlT2uWekY0L-8" target="NUg2isRPqVOl1SRqVj6D-8">
          <mxGeometry relative="1" as="geometry" />
        </mxCell>
        <mxCell id="reWbSAiXxjlT2uWekY0L-8" value="系統維護人員" style="rounded=0;whiteSpace=wrap;html=1;" vertex="1" parent="1">
          <mxGeometry x="860" y="460" width="120" height="60" as="geometry" />
        </mxCell>
        <mxCell id="reWbSAiXxjlT2uWekY0L-11" value="區分" style="text;html=1;align=center;verticalAlign=middle;resizable=0;points=[];autosize=1;strokeColor=none;fillColor=none;" vertex="1" parent="1">
          <mxGeometry x="580" y="270" width="40" height="20" as="geometry" />
        </mxCell>
        <mxCell id="reWbSAiXxjlT2uWekY0L-12" value="使用者" style="text;html=1;align=center;verticalAlign=middle;resizable=0;points=[];autosize=1;strokeColor=none;fillColor=none;" vertex="1" parent="1">
          <mxGeometry x="365" y="410" width="50" height="20" as="geometry" />
        </mxCell>
        <mxCell id="reWbSAiXxjlT2uWekY0L-14" value="使用者" style="text;html=1;align=center;verticalAlign=middle;resizable=0;points=[];autosize=1;strokeColor=none;fillColor=none;" vertex="1" parent="1">
          <mxGeometry x="765" y="410" width="50" height="20" as="geometry" />
        </mxCell>
        <mxCell id="reWbSAiXxjlT2uWekY0L-20" value="可觀看" style="text;html=1;align=center;verticalAlign=middle;resizable=0;points=[];autosize=1;strokeColor=none;fillColor=none;" vertex="1" parent="1">
          <mxGeometry x="389" y="680" width="50" height="20" as="geometry" />
        </mxCell>
        <mxCell id="reWbSAiXxjlT2uWekY0L-24" value="審核" style="text;html=1;align=center;verticalAlign=middle;resizable=0;points=[];autosize=1;strokeColor=none;fillColor=none;" vertex="1" parent="1">
          <mxGeometry x="710" y="640" width="40" height="20" as="geometry" />
        </mxCell>
        <mxCell id="reWbSAiXxjlT2uWekY0L-27" style="edgeStyle=orthogonalEdgeStyle;rounded=0;orthogonalLoop=1;jettySize=auto;html=1;exitX=0.5;exitY=1;exitDx=0;exitDy=0;entryX=0.5;entryY=0;entryDx=0;entryDy=0;" edge="1" parent="1" source="reWbSAiXxjlT2uWekY0L-25" target="NUg2isRPqVOl1SRqVj6D-15">
          <mxGeometry relative="1" as="geometry" />
        </mxCell>
        <mxCell id="reWbSAiXxjlT2uWekY0L-25" value="登入" style="whiteSpace=wrap;html=1;" vertex="1" parent="1">
          <mxGeometry x="800" y="710" width="120" height="60" as="geometry" />
        </mxCell>
        <mxCell id="reWbSAiXxjlT2uWekY0L-30" value="產生訂單" style="text;html=1;align=center;verticalAlign=middle;resizable=0;points=[];autosize=1;strokeColor=none;fillColor=none;" vertex="1" parent="1">
          <mxGeometry x="750" y="870" width="60" height="20" as="geometry" />
        </mxCell>
        <mxCell id="reWbSAiXxjlT2uWekY0L-34" value="訂單完成" style="rounded=0;whiteSpace=wrap;html=1;" vertex="1" parent="1">
          <mxGeometry x="890" y="1109" width="120" height="60" as="geometry" />
        </mxCell>
        <mxCell id="reWbSAiXxjlT2uWekY0L-36" value="產生訂單" style="text;html=1;align=center;verticalAlign=middle;resizable=0;points=[];autosize=1;strokeColor=none;fillColor=none;" vertex="1" parent="1">
          <mxGeometry x="810" y="1110" width="60" height="20" as="geometry" />
        </mxCell>
        <mxCell id="reWbSAiXxjlT2uWekY0L-41" style="edgeStyle=orthogonalEdgeStyle;rounded=0;orthogonalLoop=1;jettySize=auto;html=1;exitX=0.5;exitY=0;exitDx=0;exitDy=0;entryX=1;entryY=0.5;entryDx=0;entryDy=0;" edge="1" parent="1" source="reWbSAiXxjlT2uWekY0L-40" target="reWbSAiXxjlT2uWekY0L-8">
          <mxGeometry relative="1" as="geometry" />
        </mxCell>
        <mxCell id="reWbSAiXxjlT2uWekY0L-42" style="edgeStyle=orthogonalEdgeStyle;rounded=0;orthogonalLoop=1;jettySize=auto;html=1;exitX=0.5;exitY=0;exitDx=0;exitDy=0;entryX=1;entryY=0.5;entryDx=0;entryDy=0;" edge="1" parent="1" source="reWbSAiXxjlT2uWekY0L-40" target="reWbSAiXxjlT2uWekY0L-7">
          <mxGeometry relative="1" as="geometry">
            <Array as="points">
              <mxPoint x="1160" y="620" />
              <mxPoint x="800" y="620" />
              <mxPoint x="800" y="490" />
            </Array>
          </mxGeometry>
        </mxCell>
        <mxCell id="reWbSAiXxjlT2uWekY0L-48" style="edgeStyle=orthogonalEdgeStyle;rounded=0;orthogonalLoop=1;jettySize=auto;html=1;exitX=0.5;exitY=1;exitDx=0;exitDy=0;entryX=0.5;entryY=0;entryDx=0;entryDy=0;" edge="1" parent="1" source="reWbSAiXxjlT2uWekY0L-40" target="reWbSAiXxjlT2uWekY0L-47">
          <mxGeometry relative="1" as="geometry" />
        </mxCell>
        <mxCell id="reWbSAiXxjlT2uWekY0L-68" style="edgeStyle=orthogonalEdgeStyle;rounded=0;orthogonalLoop=1;jettySize=auto;html=1;exitX=0.5;exitY=0;exitDx=0;exitDy=0;entryX=1;entryY=0.5;entryDx=0;entryDy=0;" edge="1" parent="1" source="reWbSAiXxjlT2uWekY0L-40" target="reWbSAiXxjlT2uWekY0L-2">
          <mxGeometry relative="1" as="geometry">
            <Array as="points">
              <mxPoint x="1160" y="620" />
              <mxPoint x="550" y="620" />
              <mxPoint x="550" y="490" />
            </Array>
          </mxGeometry>
        </mxCell>
        <mxCell id="reWbSAiXxjlT2uWekY0L-69" style="edgeStyle=orthogonalEdgeStyle;rounded=0;orthogonalLoop=1;jettySize=auto;html=1;exitX=0.5;exitY=0;exitDx=0;exitDy=0;entryX=1;entryY=0.5;entryDx=0;entryDy=0;" edge="1" parent="1" source="reWbSAiXxjlT2uWekY0L-40" target="reWbSAiXxjlT2uWekY0L-1">
          <mxGeometry relative="1" as="geometry">
            <Array as="points">
              <mxPoint x="1160" y="620" />
              <mxPoint x="350" y="620" />
              <mxPoint x="350" y="490" />
            </Array>
          </mxGeometry>
        </mxCell>
        <mxCell id="reWbSAiXxjlT2uWekY0L-40" value="訂單管理" style="rounded=0;whiteSpace=wrap;html=1;" vertex="1" parent="1">
          <mxGeometry x="1100" y="940" width="120" height="60" as="geometry" />
        </mxCell>
        <mxCell id="reWbSAiXxjlT2uWekY0L-46" value="查詢" style="text;html=1;align=center;verticalAlign=middle;resizable=0;points=[];autosize=1;strokeColor=none;fillColor=none;" vertex="1" parent="1">
          <mxGeometry x="1170" y="830" width="40" height="20" as="geometry" />
        </mxCell>
        <mxCell id="reWbSAiXxjlT2uWekY0L-47" value="修改訂單" style="rounded=0;whiteSpace=wrap;html=1;" vertex="1" parent="1">
          <mxGeometry x="1100" y="1030" width="120" height="60" as="geometry" />
        </mxCell>
        <mxCell id="reWbSAiXxjlT2uWekY0L-49" value="1" style="text;html=1;align=center;verticalAlign=middle;resizable=0;points=[];autosize=1;strokeColor=none;fillColor=none;" vertex="1" parent="1">
          <mxGeometry x="550" y="260" width="20" height="20" as="geometry" />
        </mxCell>
        <mxCell id="reWbSAiXxjlT2uWekY0L-50" value="1" style="text;html=1;align=center;verticalAlign=middle;resizable=0;points=[];autosize=1;strokeColor=none;fillColor=none;" vertex="1" parent="1">
          <mxGeometry x="250" y="440" width="20" height="20" as="geometry" />
        </mxCell>
        <mxCell id="reWbSAiXxjlT2uWekY0L-51" value="1" style="text;html=1;align=center;verticalAlign=middle;resizable=0;points=[];autosize=1;strokeColor=none;fillColor=none;" vertex="1" parent="1">
          <mxGeometry x="470" y="440" width="20" height="20" as="geometry" />
        </mxCell>
        <mxCell id="reWbSAiXxjlT2uWekY0L-52" value="1" style="text;html=1;align=center;verticalAlign=middle;resizable=0;points=[];autosize=1;strokeColor=none;fillColor=none;" vertex="1" parent="1">
          <mxGeometry x="280" y="520" width="20" height="20" as="geometry" />
        </mxCell>
        <mxCell id="reWbSAiXxjlT2uWekY0L-53" value="1、2" style="text;html=1;align=center;verticalAlign=middle;resizable=0;points=[];autosize=1;strokeColor=none;fillColor=none;" vertex="1" parent="1">
          <mxGeometry x="690" y="520" width="40" height="20" as="geometry" />
        </mxCell>
        <mxCell id="reWbSAiXxjlT2uWekY0L-55" value="1、2" style="text;html=1;align=center;verticalAlign=middle;resizable=0;points=[];autosize=1;strokeColor=none;fillColor=none;" vertex="1" parent="1">
          <mxGeometry x="880" y="520" width="40" height="20" as="geometry" />
        </mxCell>
        <mxCell id="reWbSAiXxjlT2uWekY0L-56" value="1、2" style="text;html=1;align=center;verticalAlign=middle;resizable=0;points=[];autosize=1;strokeColor=none;fillColor=none;" vertex="1" parent="1">
          <mxGeometry x="660" y="640" width="40" height="20" as="geometry" />
        </mxCell>
        <mxCell id="reWbSAiXxjlT2uWekY0L-57" value="1、2" style="text;html=1;align=center;verticalAlign=middle;resizable=0;points=[];autosize=1;strokeColor=none;fillColor=none;" vertex="1" parent="1">
          <mxGeometry x="860" y="690" width="40" height="20" as="geometry" />
        </mxCell>
        <mxCell id="reWbSAiXxjlT2uWekY0L-58" value="1、2" style="text;html=1;align=center;verticalAlign=middle;resizable=0;points=[];autosize=1;strokeColor=none;fillColor=none;" vertex="1" parent="1">
          <mxGeometry x="860" y="770" width="40" height="20" as="geometry" />
        </mxCell>
        <mxCell id="reWbSAiXxjlT2uWekY0L-59" value="1、2" style="text;html=1;align=center;verticalAlign=middle;resizable=0;points=[];autosize=1;strokeColor=none;fillColor=none;" vertex="1" parent="1">
          <mxGeometry x="860" y="850" width="40" height="20" as="geometry" />
        </mxCell>
        <mxCell id="reWbSAiXxjlT2uWekY0L-60" value="1" style="text;html=1;align=center;verticalAlign=middle;resizable=0;points=[];autosize=1;strokeColor=none;fillColor=none;" vertex="1" parent="1">
          <mxGeometry x="710" y="1000" width="20" height="20" as="geometry" />
        </mxCell>
        <mxCell id="reWbSAiXxjlT2uWekY0L-61" value="1" style="text;html=1;align=center;verticalAlign=middle;resizable=0;points=[];autosize=1;strokeColor=none;fillColor=none;" vertex="1" parent="1">
          <mxGeometry x="550" y="1120" width="20" height="20" as="geometry" />
        </mxCell>
        <mxCell id="reWbSAiXxjlT2uWekY0L-62" value="1" style="text;html=1;align=center;verticalAlign=middle;resizable=0;points=[];autosize=1;strokeColor=none;fillColor=none;" vertex="1" parent="1">
          <mxGeometry x="790" y="1110" width="20" height="20" as="geometry" />
        </mxCell>
        <mxCell id="reWbSAiXxjlT2uWekY0L-63" value="2" style="text;html=1;align=center;verticalAlign=middle;resizable=0;points=[];autosize=1;strokeColor=none;fillColor=none;" vertex="1" parent="1">
          <mxGeometry x="790" y="950" width="20" height="20" as="geometry" />
        </mxCell>
        <mxCell id="reWbSAiXxjlT2uWekY0L-64" value="2" style="text;html=1;align=center;verticalAlign=middle;resizable=0;points=[];autosize=1;strokeColor=none;fillColor=none;" vertex="1" parent="1">
          <mxGeometry x="1160" y="1000" width="20" height="20" as="geometry" />
        </mxCell>
        <mxCell id="reWbSAiXxjlT2uWekY0L-65" value="2" style="text;html=1;align=center;verticalAlign=middle;resizable=0;points=[];autosize=1;strokeColor=none;fillColor=none;" vertex="1" parent="1">
          <mxGeometry x="1160" y="920" width="20" height="20" as="geometry" />
        </mxCell>
        <mxCell id="reWbSAiXxjlT2uWekY0L-70" value="1" style="text;html=1;align=center;verticalAlign=middle;resizable=0;points=[];autosize=1;strokeColor=none;fillColor=none;" vertex="1" parent="1">
          <mxGeometry x="230" y="520" width="20" height="20" as="geometry" />
        </mxCell>
        <mxCell id="reWbSAiXxjlT2uWekY0L-71" value="1" style="text;html=1;align=center;verticalAlign=middle;resizable=0;points=[];autosize=1;strokeColor=none;fillColor=none;" vertex="1" parent="1">
          <mxGeometry x="450" y="520" width="20" height="20" as="geometry" />
        </mxCell>
      </root>
    </mxGraphModel>
  </diagram>
  <diagram id="BZPio_Jj3uGKRLuExNS9" name="(d) 小題">
    <mxGraphModel dx="1125" dy="580" grid="1" gridSize="10" guides="1" tooltips="1" connect="1" arrows="1" fold="1" page="1" pageScale="1" pageWidth="827" pageHeight="1169" math="0" shadow="0">
      <root>
        <mxCell id="Udvxj7O8KsXDByOM07qp-0" />
        <mxCell id="Udvxj7O8KsXDByOM07qp-1" parent="Udvxj7O8KsXDByOM07qp-0" />
      </root>
    </mxGraphModel>
  </diagram>
  <diagram id="FHXIc3Kpj9RXKwcUpcDl" name="(e) 小題">
    <mxGraphModel dx="1422" dy="689" grid="1" gridSize="10" guides="1" tooltips="1" connect="1" arrows="1" fold="1" page="1" pageScale="1" pageWidth="827" pageHeight="1169" math="0" shadow="0">
      <root>
        <mxCell id="0" />
        <mxCell id="1" parent="0" />
      </root>
    </mxGraphModel>
  </diagram>
</mxfile>
